<?xml version="1.0" encoding="UTF-8"?>
<svg id="artwork" xmlns="http://www.w3.org/2000/svg" xmlns:xlink="http://www.w3.org/1999/xlink" version="1.1" viewBox="0 0 191.9 43.1">
  <!-- Generator: Adobe Illustrator 29.0.1, SVG Export Plug-In . SVG Version: 2.1.0 Build 192)  -->
  <defs>
    <style>
      .st0 {
        fill: #002f7c;
      }

      .st1 {
        fill: url(#_新增漸層色票_5);
      }

      .st2 {
        fill: url(#_新增漸層色票_4);
      }

      .st3 {
        fill: #44af35;
      }

      .st4 {
        fill: url(#_新增漸層色票_41);
      }

      .st5 {
        fill: #fff;
      }
    </style>
    <linearGradient id="_新增漸層色票_4" data-name="新增漸層色票 4" x1="10.8" y1="10.8" x2="21.8" y2="21.8" gradientUnits="userSpaceOnUse">
      <stop offset="0" stop-color="#e73e0c"/>
      <stop offset=".2" stop-color="#e95504"/>
      <stop offset=".5" stop-color="#f08600"/>
      <stop offset="1" stop-color="#ffe600"/>
    </linearGradient>
    <linearGradient id="_新增漸層色票_41" data-name="新增漸層色票 4" x1="-3166.2" y1="4405" x2="-3155.2" y2="4416" gradientTransform="translate(-4394.1 -3133.9) rotate(-90)" xlink:href="#_新增漸層色票_4"/>
    <linearGradient id="_新增漸層色票_5" data-name="新增漸層色票 5" x1="32.4" y1="10.7" x2="21.6" y2="21.5" gradientUnits="userSpaceOnUse">
      <stop offset="0" stop-color="#003383"/>
      <stop offset=".2" stop-color="#003787"/>
      <stop offset=".5" stop-color="#005ba9"/>
      <stop offset="1" stop-color="#009fe8"/>
    </linearGradient>
  </defs>
  <g>
    <g>
      <path class="st0" d="M71,39.7c-.3.1-.6.2-1,.2-1.3,0-2.5-1-2.5-2.7,0-1.7,1.1-2.7,2.6-2.7.6,0,1.2.2,1.6.4h0s.5-.9.5-.9h0c-.5-.3-1.3-.6-2.1-.6-2.6,0-4.2,1.8-4.2,3.8,0,2.2,1.6,3.9,4.2,3.9.8,0,1.7-.2,2.5-.5h0v-3.1h-1.5v2.3Z"/>
      <rect class="st0" x="73.7" y="33.5" width="1.5" height="7.4"/>
      <polygon class="st0" points="65.9 33.5 64.4 33.5 61.8 36.6 61.8 33.5 60.3 33.5 60.3 40.9 61.8 40.9 61.8 37.2 64.5 40.9 66.4 40.9 63.2 36.8 65.9 33.5"/>
    </g>
    <g>
      <path class="st0" d="M161.4,39.2c-.6-2.1-1.9-5.7-1.9-5.7h-1.6l2.8,7.4h1.3l2.9-7.4h-1.4s-1.3,3.6-2,5.7Z"/>
      <path class="st0" d="M184.6,37.6c.7-.4,1.2-1.1,1.2-2.1,0-1.3-1-2-2.4-2h-2.6v7.4h1.6v-2.9h.8l1.4,2.9h1.8s-1.8-3.3-1.8-3.3ZM183,36.9h-.6v-2.4h.7c.6,0,1.1.3,1.1,1.1,0,.5-.3,1.3-1.3,1.3Z"/>
      <path class="st0" d="M176.4,33.3c-2.1,0-3.7,1.7-3.7,3.7,0,2.2,1.4,3.9,3.7,3.9,2.3,0,3.7-1.7,3.7-3.9,0-2.1-1.6-3.7-3.7-3.7ZM176.4,39.9c-1.5,0-2.1-1.4-2.1-2.8,0-1.3.6-2.6,2.1-2.6,1.4,0,2.1,1.3,2.1,2.6,0,1.4-.5,2.8-2.1,2.8Z"/>
      <path class="st0" d="M190.7,33.5s-1.6,3.2-1.6,3.2l-1.4-3.2h-1.9l2.3,4.3v3.1h1.6v-3.1l2.3-4.3h-1.3Z"/>
      <path class="st0" d="M170.7,36.6c-.9-.7-1.4-1.1-1.4-1.5,0-.4.3-.7.9-.7.4,0,.8.2,1.2.4h0s0,0,0,0l.5-.8h0c-.4-.4-1-.7-1.9-.7-1.3,0-2.4.8-2.4,1.8,0,1,.6,1.5,1.3,2,.6.5,1.6,1,1.6,1.8,0,.7-.5,1-1.1,1-.7,0-1.1-.3-1.5-.6h0s-.6.9-.6.9h0c.6.5,1.4.8,2.2.8,1.7,0,2.6-1.1,2.6-2s-.5-1.6-1.5-2.3Z"/>
      <path class="st0" d="M148.4,33.5h-1.3l-3,7.4h1.4l.8-2h2.6l.7,2h1.7l-2.8-7.4ZM146.6,37.9c.3-.9.7-1.8,1-2.9.3,1.1.6,1.9.9,2.9h-1.9Z"/>
      <path class="st0" d="M157.3,34.5c-.6-.7-1.7-1.1-3.2-1.1h-2.6v7.4h2.4c1.3,0,2.4-.4,3.1-1,.7-.7,1.1-1.7,1.1-2.9s-.3-1.8-.9-2.4ZM154,39.8h-.9v-5.3h1c1.5,0,2.4.9,2.4,2.4,0,2-.9,2.9-2.6,2.9Z"/>
      <rect class="st0" x="165.2" y="33.5" width="1.6" height="7.4"/>
    </g>
    <g>
      <rect class="st0" x="80.1" y="33.5" width="1.6" height="7.4"/>
      <g>
        <path class="st0" d="M93.5,39.2c-.6-2.1-1.9-5.7-1.9-5.7h-1.6l2.8,7.4h1.3l2.9-7.4h-1.4s-1.3,3.6-2,5.7Z"/>
        <path class="st0" d="M120.4,33.5c-.8,1.8-2.1,4.5-2.5,5.6-.3-1-1.5-3.8-2.2-5.6h0s-1.9,0-1.9,0v7.4h1.3v-5.6c.8,2,1.5,3.8,2.3,5.6h0s.8,0,.8,0h0c.8-1.8,1.6-3.6,2.4-5.6v5.6h1.6v-7.4h-1.8Z"/>
        <path class="st0" d="M133.9,38.7c-1.4-1.9-2.8-3.5-4.1-5.2h0s-1.1,0-1.1,0v7.4h1.3v-5.2c1.4,1.9,2.8,3.5,4.2,5.2h0s1.1,0,1.1,0v-7.4h-1.3v5.2Z"/>
        <path class="st0" d="M105.6,36.6c-.9-.7-1.4-1.1-1.4-1.5,0-.4.3-.7.9-.7.4,0,.8.2,1.2.4h0s0,0,0,0l.5-.8h0c-.4-.4-1-.7-1.9-.7-1.3,0-2.4.8-2.4,1.8,0,1,.6,1.5,1.3,2,.6.5,1.6,1,1.6,1.8,0,.7-.5,1-1.1,1-.6,0-1.1-.3-1.5-.6h0s-.6.9-.6.9h0c.6.5,1.4.8,2.2.8,1.7,0,2.6-1.1,2.6-2s-.5-1.6-1.5-2.3Z"/>
        <path class="st0" d="M88.2,38.7c-1.4-1.9-2.8-3.5-4.2-5.2h0s-1.1,0-1.1,0v7.4h1.3v-5.2c1.4,1.9,2.8,3.5,4.2,5.2h0s1.1,0,1.1,0v-7.4h-1.3v5.2Z"/>
        <polygon class="st0" points="135.8 34.5 138 34.5 138 40.9 139.6 40.9 139.6 34.5 141.3 34.5 141.9 33.5 135.8 33.5 135.8 34.5"/>
        <polygon class="st0" points="101.3 34.5 101.9 33.5 97.3 33.5 97.3 40.9 101.8 40.9 101.8 39.8 98.9 39.8 98.9 37.5 101.3 37.5 101.3 36.5 98.9 36.5 98.9 34.5 101.3 34.5"/>
        <polygon class="st0" points="127.5 34.5 128.1 33.5 123.5 33.5 123.5 40.9 128 40.9 128 39.8 125.1 39.8 125.1 37.5 127.5 37.5 127.5 36.5 125.1 36.5 125.1 34.5 127.5 34.5"/>
        <polygon class="st0" points="107.3 34.5 109.6 34.5 109.6 40.9 111.2 40.9 111.2 34.5 112.9 34.5 113.4 33.5 107.3 33.5 107.3 34.5"/>
      </g>
    </g>
  </g>
  <g>
    <path class="st0" d="M108.9,19.7c1.1,1,2.9,2.1,5.7,2.9v-2.1c-2.3-.7-4.6-2.4-5.4-3.9h5.4v-1.9h-5.9s0-7.6,0-7.6h3.8s0-1.9,0-1.9h-3.8s0-2.3,0-2.3h-2.2v2.3h-7.4s0-2.3,0-2.3h-2.2v2.3h-3.8v1.9h3.8s0,7.6,0,7.6h-5.9s0,1.9,0,1.9h5.4c-.8,1.5-3.2,3.2-5.4,3.9v2.1c2.8-.9,4.6-1.9,5.7-2.9v1.5s4.9,0,4.9,0v2.4s-8.3,0-8.3,0v1.9h19v-1.9h-8.3s0-2.4,0-2.4h4.9v-1.6ZM106.5,13.5v1.3h-7.3s0-1.3,0-1.3h7.3ZM99.2,11.7v-1.3h7.3v1.3s-7.3,0-7.3,0ZM99.2,7.2h7.3s0,1.3,0,1.3h-7.3s0-1.3,0-1.3ZM104,19.4v-1.9h-2.4v1.9s-4.6,0-4.6,0c1.2-1.1,1.7-2.1,2-2.7h7.5c.2.6.8,1.6,2,2.7h-4.6Z"/>
    <path class="st0" d="M166,24.6s1.4,1.2,1.5,1.2c1-1,1.7-2.1,2.3-3.5l-1.8-.8c-.4,1.2-1.1,2.3-2,3.1ZM173.5,21.4l-1.3,1.5c.8.7,1.8,1.6,2.9,3l1.6-1.2c-1.1-1.5-2.2-2.4-3.2-3.3ZM166.6,20.8h8.8c.2,0,.3,0,.3-.3V7.3c0-.2,0-.2-.3-.3h-4.2s.4-1.5.5-1.5h4v-1.9h-9.4v1.9h3.3s-.5,1.5-.5,1.5h-2.5c-.2,0-.2,0-.3.3v13.2c0,.2,0,.3.3.3ZM168.3,9s0,0,0,0h5.2c0,0,0,0,0,0v2h-5.3v-2ZM168.3,12.9h5.3v2.1h-5.3v-2.1ZM168.3,16.9h5.3v2s0,0,0,0h-5.2c0,0,0,0,0,0v-2ZM162.9,22.1h2.1v-1.6h-2.1v-1.8h2.1v-1.6h-2.1v-1.8h2.1v-1.6h-1.9c.2-.4.5-1.1.7-1.5h-1.7c-.2.5-.5,1-.8,1.5h-2c.2-.4.5-1.1.7-1.5h-1.8c-.4,1.1-1,2.1-1.7,2.9,0-.8,0-1.7,0-2.6v-1.2h7.9c.4,0,.5-.2.5-.5v-3.8c0-.3-.2-.5-.5-.5h-7.9v-.5c0-.2,0-.3.3-.3,2.1,0,4.8-.2,6.9-.5v-2c-2.2.4-5.4.6-8.6.7-.4,0-.5.2-.5.7v8.1c0,1.9-.1,3.6-.3,5.2-.2,1.9-.9,4.9-1.5,7.4h2.2c.7-2.8,1.1-4.7,1.3-7.6.2-.1.9-.8,1.1-1v8.5c0,.4.2.6.6.6h7.2v-1.6h-2.4v-1.9ZM156.7,8h6.5c.1,0,.2,0,.2.1v1.3c0,.1,0,.2-.2.2h-6.5v-1.6ZM161.2,23.9h-1.7c-.2,0-.2,0-.2-.3v-1.6h2v1.9ZM161.2,20.4h-2v-1.8h2v1.8ZM161.2,17.1h-2v-1.5c0-.2,0-.2.2-.2h1.7v1.8Z"/>
    <path class="st0" d="M129,9.1h2v-2h-2v-3.9h-2.3v3.9h-3.3v2h3.3v5.7c-1.3.4-3.3,1-3.3,1v2s2.1-.6,3.3-1v6.1c0,.5,0,.6-.6.7-.8,0-1.6,0-2.3,0l.4,2.1c1,0,2.1.2,3.2,0,1.2-.2,1.7-1.3,1.6-2.5v-7.1c.7-.3,2-.7,2-.7v-1.9s-1.3.5-2,.7v-4.9ZM144.7,13.5s.5-1.4-1.2-1.4h-11.5v2h9.9c-.9,2-2.1,3.7-3.5,5.1-1.2-1.2-2.3-2.6-3.1-4.2h-2.7c1,2.2,2.4,4.1,4,5.7-1.5,1.2-3.3,2.1-5.2,2.7v2.2c2.5-.7,4.8-1.9,6.9-3.5,2,1.5,4.3,2.7,6.9,3.5v-2.2c-1.9-.6-3.6-1.6-5.2-2.7,2-1.9,3.6-4.3,4.7-7.2ZM142.9,8.9c-.4,0-.4-.1-.4-.9v-3.6s.1-1.2-1.1-1.2h-7.8v3.3c0,1.5-.4,2.3-1.9,2.6v2.1c1.7,0,4.3-1.6,4.3-4.7v-1.4h4v2.6c0,2.4.5,3.1,2.8,3.1h2.5v-2.1s-2.1,0-2.4,0Z"/>
    <path class="st0" d="M62.4,9.2h8.1s0-5.5,0-5.5h-2s0,3.7,0,3.7h-1.7V3h-2v4.4h-1.7v-3.7s-2,0-2,0v4.1c0,.8.6,1.4,1.4,1.4ZM61.1,10.3v1.8h9.5s0-1.8,0-1.8h-9.5ZM69.2,13.1h-8.1s0,4.1,0,4.1c0,.7.6,1.4,1.4,1.4h8.1s0-4.1,0-4.1c0-.8-.6-1.4-1.4-1.4ZM68.4,16.9h-5.3s0-2.2,0-2.2h5.3s0,2.2,0,2.2ZM70.9,21.4l-2.3.4.9-2.6h-1.9l-1,2.9-1.8.3c0-1-.3-2-.7-3.2h-2c.4,1,.8,2.4.9,3.5-1.1.2-1.9.3-2.6.4v2.2c2.6-.5,7.6-1.7,10.6-2.3v-1.6ZM81,23.6c-.5,0-.7-.3-.7-.7V5.1c0-.7-.6-1.4-1.4-1.4h-5.7v11.1c0,4-.3,7.9-2.8,10.7h2.3c2.6-3,2.7-6.3,2.7-10.7V5.6s2.6,0,2.6,0v17.6c0,1.3.4,2.1,1.6,2.3.7.1,2.4,0,3.6,0l.4-1.9c-1,0-2.1,0-2.5,0Z"/>
  </g>
  <g>
    <polygon class="st0" points="0 21.5 21.6 0 0 0 0 21.5"/>
    <polygon class="st0" points="21.6 43.1 0 21.5 0 43.1 21.6 43.1"/>
    <polygon class="st0" points="21.6 43.1 43.1 21.5 43.1 43.1 21.6 43.1"/>
    <polygon class="st3" points="43.1 21.5 21.6 0 43.1 0 43.1 21.5"/>
    <polygon class="st2" points="21.6 0 0 21.5 21.6 21.5 21.6 0"/>
    <polygon class="st4" points="0 21.5 21.6 43.1 21.6 21.5 0 21.5"/>
    <polygon class="st5" points="43.1 21.5 21.6 43.1 21.6 21.5 43.1 21.5"/>
    <polygon class="st1" points="43.1 21.5 21.6 0 21.6 21.5 43.1 21.5"/>
  </g>
</svg>