<svg width="36" height="36" viewBox="0 0 36 36" fill="none" xmlns="http://www.w3.org/2000/svg">
<circle cx="18" cy="18" r="18" fill="#68C89E"/>
<path d="M25.5 17.5834C25.5029 18.6832 25.2459 19.7683 24.75 20.75C24.162 21.9265 23.2581 22.916 22.1395 23.6078C21.021 24.2995 19.7319 24.6662 18.4167 24.6667C17.3168 24.6696 16.2318 24.4126 15.25 23.9167L10.5 25.5L12.0833 20.75C11.5874 19.7683 11.3305 18.6832 11.3333 17.5834C11.3338 16.2682 11.7005 14.9791 12.3923 13.8605C13.084 12.7419 14.0735 11.838 15.25 11.25C16.2318 10.7541 17.3168 10.4972 18.4167 10.5H18.8333C20.5703 10.5959 22.2109 11.329 23.4409 12.5591C24.671 13.7892 25.4042 15.4297 25.5 17.1667V17.5834Z" stroke="white" stroke-width="1.5" stroke-linecap="round" stroke-linejoin="round"/>
</svg>
