<?xml version="1.0" encoding="utf-8"?>
<!-- Generator: $$$/GeneralStr/196=Adobe Illustrator 27.6.0, SVG Export Plug-In . SVG Version: 6.00 Build 0)  -->
<svg version="1.1" id="artwork" xmlns="http://www.w3.org/2000/svg" xmlns:xlink="http://www.w3.org/1999/xlink" x="0px" y="0px"
	 viewBox="0 0 177.7 45.1" style="enable-background:new 0 0 177.7 45.1;" xml:space="preserve">
<style type="text/css">
	.st0{fill:#FFFFFF;}
	.st1{fill:#00367B;}
	.st2{fill:#50B848;}
	.st3{fill:url(#SVGID_1_);}
	.st4{fill:url(#SVGID_00000016057438352180241820000006154112869719791010_);}
	.st5{fill:url(#SVGID_00000151538954031822214170000006765904883951307953_);}
</style>
<g>
	<g>
		<g>
			<path class="st0" d="M177.6,12.9h-8c-0.8-1.1-1.2-2-1.3-2.4h7.1V8.7h-3.8c0.8-1.5,1.7-3.6,1.8-3.6h-2.5c-0.4,0.9-1,2.5-1.6,3.6
				h-3.2c0.8-2.2,1.1-3.9,1.1-4.6h-2.1c-0.1,1.5-0.6,3.1-1.2,4.6h-1.4c-0.7-1.8-1.4-3.6-1.4-3.6h-2.4c0,0,0.8,2,1.4,3.6h-3.8v1.9
				h6.8c-0.4,0.8-0.9,1.6-1.5,2.4h-7.5v2h5.8c-1.7,1.8-3.6,3.3-5.8,4v2c1.9-0.5,3.6-1.4,5.1-2.4v0.8h4.3c-0.4,2.8-4.4,5.1-6.2,5.6
				v1.9c3.5-1,7.6-3,8.6-7.5h4.1c-0.2,3.7-0.2,4.9-0.6,5.1c-0.1,0.1-0.3,0.1-0.5,0.1c-0.6,0-1.8,0-2.6-0.1l0.3,1.8
				c0.8,0,2.3,0.1,2.9,0c0.6,0,1.1-0.1,1.5-0.4c0.7-0.5,0.9-2.3,1.1-6.8c0-0.1,0-0.5,0-0.5l0,0c0-0.2,0-0.4-0.1-0.5
				c1.5,1.1,3.4,2.1,5.6,2.7v-2c-2.7-0.9-4.8-2.5-6.2-4h6.3L177.6,12.9L177.6,12.9z M165.3,10.5h0.7c0.1,0.4,0.5,1.3,1.1,2.4h-3
				C164.6,12.1,165,11.3,165.3,10.5z M170.7,17.5h-10.2c0.9-0.8,1.6-1.6,2.2-2.5h5.8c0.6,0.8,1.4,1.7,2.4,2.5
				C170.9,17.5,170.8,17.5,170.7,17.5z"/>
			<path class="st0" d="M71.6,11.3h-9.5v1.8h9.5V11.3z M71.9,22.4l-2.3,0.4l0.9-2.6h-1.9l-1,2.9l-1.8,0.3c-0.1-1-0.3-2-0.7-3.2h-2
				c0.5,1,0.8,2.4,0.9,3.5c-1.1,0.2-1.9,0.3-2.7,0.4v2.2c2.6-0.5,7.6-1.7,10.6-2.3L71.9,22.4L71.9,22.4z M63.4,10.2h8.1V4.8h-2v3.7
				h-1.7V4h-2v4.4h-1.7V4.8h-2v4.1C62.1,9.6,62.7,10.2,63.4,10.2z M63.4,19.5h8.1v-4.1c0-0.8-0.6-1.4-1.4-1.4h-8v4.1
				C62.1,18.9,62.7,19.5,63.4,19.5z M64.2,15.7h5.3v2.2h-5.3C64.2,17.9,64.2,15.7,64.2,15.7z M82,24.6c-0.5,0-0.7-0.3-0.7-0.8V6.1
				c0-0.8-0.6-1.4-1.4-1.4h-5.7v11.1c0,4-0.3,7.9-2.9,10.7h2.3c2.6-3,2.7-6.3,2.7-10.7V6.6h2.6v17.6c0,1.3,0.4,2.1,1.6,2.3
				c0.7,0.1,2.4,0.1,3.6,0l0.4-1.9C83.6,24.6,82.5,24.6,82,24.6z"/>
			<g>
				<path class="st0" d="M115.6,15.8h-5.9V8.2h3.8V6.3h-3.8V4h-2.2v2.3h-7.4V4h-2.2v2.3h-3.8v1.8h3.8v7.6H92v1.9h5.4
					c-0.8,1.5-3.2,3.2-5.4,3.9v2.1c2.8-0.9,4.6-1.9,5.7-2.9v1.5h4.9v2.4h-8.3v1.9h19v-1.9H105v-2.4h4.9v-1.5c1.1,1,2.9,2.1,5.7,2.9
					v-2.1c-2.3-0.7-4.6-2.4-5.4-3.9h5.4L115.6,15.8L115.6,15.8z M100.2,8.2h7.3v1.3h-7.3V8.2z M100.2,11.3h7.3v1.3h-7.3V11.3z
					 M100.2,14.5h7.3v1.3h-7.3V14.5z M105,20.3v-1.9h-2.3v1.9h-4.6c1.2-1.1,1.7-2.1,2-2.7h7.5c0.2,0.6,0.8,1.6,2,2.7H105z"/>
			</g>
			<path class="st0" d="M124.3,10.3h8V8.4h-7.9C124.3,8.4,124.3,10.3,124.3,10.3z M131.3,11.9h-6.1v1.9h6.1V11.9z M125.2,17.4h6.1
				v-1.9h-6.1V17.4z M131.1,4.9h-5.6v1.9h5.6V4.9z M130.4,18.9h-5.6v6.3c0,0.8,0.6,1.4,1.4,1.4h5.6v-6.3
				C131.7,19.5,131.1,18.9,130.4,18.9z M129.7,24.6h-2.8v-3.9h2.8V24.6z M144.1,10.9c1-0.8,1.8-1.4,2.5-2.1l-1.2-1.1
				c-0.5,0.6-1.1,1.2-2,1.9c-0.3-0.6-0.5-1.1-0.8-1.7c1.1-0.8,2-1.6,2.7-2.3l-1.2-1.1c-0.5,0.6-1.1,1.2-2,2c-0.2-0.6-0.3-1-0.4-1.5
				h-1.8c0.6,2.8,1.4,4.8,2.5,6.6h-5.8c1-1.6,1.8-3.4,2.3-5.4V6.1c0-0.2,0.1-0.5-0.2-0.8c0,0-0.2-0.2-0.6-0.2h-4.9v1.7h3.7
				c-0.3,1-0.6,1.8-1,2.6c-0.6-0.6-1.2-1.2-2-1.7l-1,1.1c0.9,0.7,1.6,1.4,2.1,2c-0.4,0.7-1.4,1.9-2.5,2.5v1.9
				c0.9-0.2,2.5-1.4,3.5-2.6v0.9h7v-0.9c0.9,1.1,2.5,2.2,3.5,2.6v-1.9C145.4,12.5,144.4,11.5,144.1,10.9z M143.6,21.2h-2.1
				c-0.6,1.2-1.1,3.4-1.1,3.4h-2c0,0-0.5-2.2-1.1-3.4h-2.1c0.5,1,0.9,2.5,1.1,3.4h-3.6v1.8h13.4v-1.8h-3.6
				C142.7,23.7,143.1,22.3,143.6,21.2z M144.6,20.5v-4.4c0-0.8-0.6-1.4-1.4-1.4h-8.9v4.4c0,0.8,0.6,1.4,1.4,1.4H144.6L144.6,20.5z
				 M136.3,16.6h6.4v2h-6.4V16.6z"/>
		</g>
		<g>
			<path class="st0" d="M72,40.7c-0.3,0.1-0.6,0.2-1,0.2c-1.2,0-2.5-1-2.5-2.7s1.1-2.7,2.6-2.7c0.6,0,1.2,0.2,1.6,0.4l0,0l0.5-0.9
				l0,0c-0.5-0.3-1.3-0.6-2.1-0.6c-2.6,0-4.2,1.8-4.2,3.8c0,2.2,1.6,3.9,4.2,3.9c0.8,0,1.7-0.2,2.5-0.5l0,0v-3.1h-1.5L72,40.7
				L72,40.7z M74.8,34.5v7.4h1.6v-7.4C76.3,34.5,74.8,34.5,74.8,34.5z M67,34.5h-1.6l-2.5,3.2v-3.2h-1.5v7.4h1.5v-3.7l2.7,3.7h1.9
				l-3.2-4.1L67,34.5z"/>
			<path class="st0" d="M84.1,37.6c-0.9-0.7-1.4-1-1.4-1.5c0-0.4,0.3-0.7,0.9-0.7c0.4,0,0.8,0.2,1.2,0.4l0,0l0,0l0.5-0.8l0,0
				c-0.3-0.3-1-0.7-1.9-0.7c-1.3,0-2.4,0.8-2.4,1.8s0.6,1.5,1.3,2c0.6,0.5,1.6,1,1.6,1.8c0,0.7-0.5,1-1.1,1c-0.7,0-1.1-0.3-1.5-0.6
				l0,0l-0.6,0.9l0,0c0.6,0.5,1.4,0.7,2.2,0.8c1.7,0,2.6-1.1,2.6-2C85.6,39,85.1,38.4,84.1,37.6z M95.3,35.4c0.6,0,1.2,0.2,1.5,0.4
				l0,0l0,0l0.5-0.9l0,0c-0.5-0.3-1.2-0.6-2-0.6c-2.6,0-4.2,1.8-4.2,3.8c0,2.2,1.6,3.9,4.2,3.9c0.7,0,1.5-0.2,2-0.5l0,0l-0.4-1l0,0
				c-0.4,0.2-0.9,0.4-1.5,0.4c-1.4,0-2.6-1-2.6-2.7C92.7,36.5,93.8,35.5,95.3,35.4z M102.6,38.8c0,1.2-0.4,2.1-1.5,2.1
				c-1.2,0-1.6-0.8-1.6-2.2v-4.2h-1.6V39c0,1,0.3,1.8,0.8,2.3s1.3,0.8,2.3,0.8c1.8,0,3-1.1,3-2.9v-4.6h-1.4
				C102.6,34.6,102.6,38.8,102.6,38.8z M111.2,41.9h1.6v-7.4h-1.6V41.9z M119.8,41.9h1.6v-7.4h-1.6V41.9z M130.8,37.6
				c-0.9-0.7-1.4-1-1.4-1.5c0-0.4,0.3-0.7,0.9-0.7c0.4,0,0.8,0.2,1.2,0.4l0,0l0,0l0.6-0.8l0,0c-0.4-0.3-1-0.7-1.9-0.7
				c-1.3,0-2.4,0.8-2.4,1.8s0.6,1.5,1.3,2c0.6,0.5,1.6,1,1.6,1.8c0,0.7-0.5,1-1.1,1c-0.7,0-1.1-0.3-1.5-0.6l0,0l-0.6,0.9l0,0
				c0.6,0.5,1.4,0.7,2.2,0.8c1.7,0,2.6-1.1,2.6-2C132.3,39,131.8,38.4,130.8,37.6z M110.2,36.4c0-1.3-1-2-2.4-2h-2.6v7.4h1.6v-2.9
				h0.8l1.4,2.9h1.8l-1.8-3.3C109.6,38.1,110.2,37.5,110.2,36.4z M107.3,37.9h-0.6v-2.4h0.7c0.6,0,1.1,0.3,1.1,1.1
				C108.6,37.1,108.3,37.9,107.3,37.9z M113.3,35.5h2.3v6.4h1.6v-6.4h1.7l0.6-1h-6.1L113.3,35.5L113.3,35.5z M90.5,35.5l0.6-1h-4.6
				v7.4H91v-1h-2.9v-2.3h2.4v-1h-2.4v-2h2.4V35.5z M126.6,35.5l0.6-1h-4.6v7.4h4.5v-1h-3v-2.3h2.4v-1h-2.4v-2h2.5V35.5z"/>
		</g>
	</g>
	<g>
		<polygon class="st1" points="1.1,22.5 22.6,1 1.1,1 		"/>
		<polygon class="st1" points="22.6,44.1 1.1,22.5 1.1,44.1 		"/>
		<polygon class="st1" points="22.6,44.1 44.2,22.5 44.2,44.1 		"/>
		<polygon class="st2" points="44.2,22.5 22.6,1 44.2,1 		"/>
		
			<linearGradient id="SVGID_1_" gradientUnits="userSpaceOnUse" x1="11.9182" y1="1045.8105" x2="22.9236" y2="1056.816" gradientTransform="matrix(1 0 0 1 0 -1034)">
			<stop  offset="0" style="stop-color:#EF4622"/>
			<stop  offset="0.2" style="stop-color:#F15A21"/>
			<stop  offset="0.52" style="stop-color:#F6851E"/>
			<stop  offset="1" style="stop-color:#FFE300"/>
		</linearGradient>
		<polygon class="st3" points="22.6,1 1.1,22.5 22.6,22.5 		"/>
		
			<linearGradient id="SVGID_00000136412362909730308770000000955865272414440833_" gradientUnits="userSpaceOnUse" x1="-4657.521" y1="5226.0225" x2="-4646.5151" y2="5237.0283" gradientTransform="matrix(0 -1 1 0 -5214.1226 -4624.2632)">
			<stop  offset="0" style="stop-color:#EF4622"/>
			<stop  offset="0.2" style="stop-color:#F15A21"/>
			<stop  offset="0.52" style="stop-color:#F6851E"/>
			<stop  offset="1" style="stop-color:#FFE300"/>
		</linearGradient>
		<polygon style="fill:url(#SVGID_00000136412362909730308770000000955865272414440833_);" points="1.1,22.5 22.6,44.1 22.6,22.5 		
			"/>
		<polygon class="st0" points="44.2,22.5 22.6,44.1 22.6,22.5 		"/>
		
			<linearGradient id="SVGID_00000153677839872151138650000010366377666158540711_" gradientUnits="userSpaceOnUse" x1="33.4857" y1="1045.672" x2="22.633" y2="1056.5247" gradientTransform="matrix(1 0 0 1 0 -1034)">
			<stop  offset="0" style="stop-color:#073C87"/>
			<stop  offset="0.2" style="stop-color:#00408A"/>
			<stop  offset="0.52" style="stop-color:#0063AC"/>
			<stop  offset="1" style="stop-color:#00AEEF"/>
		</linearGradient>
		<polygon style="fill:url(#SVGID_00000153677839872151138650000010366377666158540711_);" points="44.2,22.5 22.6,1 22.6,22.5 		
			"/>
	</g>
</g>
<g>
	<path class="st0" d="M44.2,1v43.1H1.1V1H44.2 M45.2,0h-1H1.1h-1v1v43.1v1h1h43.1h1v-1V1V0L45.2,0z"/>
</g>
</svg>
